<svg id="Layer_1" data-name="Layer 1" xmlns="http://www.w3.org/2000/svg" viewBox="0 0 823.15 934.77"><defs><style>.cls-1{fill:#56bc77;}.cls-2{fill:#231f20;}.cls-3{fill:#f2b341;}.cls-4{fill:#e6549e;}.cls-5{fill:#ef4244;}</style></defs><title>chegaai-marca-vetores</title><circle class="cls-1" cx="142.47" cy="284.74" r="101.82"/><circle class="cls-1" cx="468.44" cy="711.57" r="101.82"/><circle class="cls-2" cx="375.86" cy="723.11" r="29.44" transform="translate(-411 510.97) rotate(-47.45)"/><path class="cls-2" d="M298.46,289.41a5.77,5.77,0,1,1,5.77-5.76A5.77,5.77,0,0,1,298.46,289.41Zm0-10.92a5.16,5.16,0,1,0,5.16,5.16A5.17,5.17,0,0,0,298.46,278.49Z"/><path class="cls-2" d="M259.67,670.05a5.77,5.77,0,1,1,5.77-5.77A5.77,5.77,0,0,1,259.67,670.05Zm0-10.93a5.16,5.16,0,1,0,5.16,5.16A5.16,5.16,0,0,0,259.67,659.12Z"/><path class="cls-2" d="M457.5,331.9a5.77,5.77,0,1,1,5.76-5.76A5.78,5.78,0,0,1,457.5,331.9Zm0-10.92a5.16,5.16,0,1,0,5.16,5.16A5.16,5.16,0,0,0,457.5,321Z"/><path class="cls-2" d="M364.27,441.63a5.77,5.77,0,1,1,5.77-5.77A5.78,5.78,0,0,1,364.27,441.63Zm0-10.93a5.16,5.16,0,1,0,5.16,5.16A5.17,5.17,0,0,0,364.27,430.7Z"/><path class="cls-1" d="M544.82,290.41A39.59,39.59,0,1,0,584.41,330,39.6,39.6,0,0,0,544.82,290.41Z"/><path class="cls-2" d="M385.86,489.79l28.56-41.06a7.81,7.81,0,0,1,12.84,0l28.57,41.06a7.82,7.82,0,0,1-6.42,12.29H392.28A7.82,7.82,0,0,1,385.86,489.79Z"/><path class="cls-3" d="M130.42,743.74l47.31-68a12.94,12.94,0,0,1,21.26,0l47.31,68a13,13,0,0,1-10.63,20.35H141.05A13,13,0,0,1,130.42,743.74Z"/><path class="cls-3" d="M224.25,449.79l-13.79-9.59a2.62,2.62,0,0,1,0-4.31l13.79-9.6a2.62,2.62,0,0,1,4.12,2.16v19.18A2.62,2.62,0,0,1,224.25,449.79Z"/><path class="cls-3" d="M395.56,362.78,354.5,334.22a7.81,7.81,0,0,1,0-12.84l41.06-28.57a7.82,7.82,0,0,1,12.29,6.42v57.13A7.82,7.82,0,0,1,395.56,362.78Z"/><path class="cls-2" d="M214.8,332.34,228.29,313a3.69,3.69,0,0,1,6.06,0l13.49,19.39a3.69,3.69,0,0,1-3,5.8h-27A3.69,3.69,0,0,1,214.8,332.34Z"/><rect class="cls-4" x="140.29" y="520.93" width="94.56" height="119.93" rx="21.37" ry="21.37"/><rect class="cls-4" x="619.87" y="382.55" width="117" height="92.26" rx="20.85" ry="20.85"/><rect class="cls-4" x="437.93" y="35.32" width="84.79" height="107.53" rx="19.16" ry="19.16"/><rect class="cls-5" x="90.23" y="504.02" width="85.67" height="33.75" rx="15.27" ry="15.27"/><rect class="cls-5" x="90.23" y="549.35" width="85.67" height="33.75" rx="15.27" ry="15.27"/><rect class="cls-5" x="557.16" y="760.4" width="33.75" height="85.67" rx="15.27" ry="15.27"/><rect class="cls-5" x="511.83" y="760.4" width="33.75" height="85.67" rx="15.27" ry="15.27"/><rect class="cls-5" x="490.02" y="120.54" width="91.28" height="35.96" rx="16.27" ry="16.27"/><rect class="cls-5" x="490.02" y="168.84" width="91.28" height="35.96" rx="16.27" ry="16.27"/><path class="cls-2" d="M282.32,873.27H92.47a38.72,38.72,0,0,1-38.68-38.69v-7.9A38.72,38.72,0,0,1,92.47,788H282.32A38.73,38.73,0,0,1,321,826.68v7.9A38.73,38.73,0,0,1,282.32,873.27ZM92.47,790.36a36.36,36.36,0,0,0-36.32,36.32v7.9a36.37,36.37,0,0,0,36.32,36.33H282.32a36.37,36.37,0,0,0,36.33-36.33v-7.9a36.37,36.37,0,0,0-36.33-36.32Z"/><path class="cls-2" d="M776.81,585.43H587a38.73,38.73,0,0,1-38.69-38.68v-7.9A38.73,38.73,0,0,1,587,500.16H776.81a38.73,38.73,0,0,1,38.69,38.69v7.9A38.73,38.73,0,0,1,776.81,585.43ZM587,502.52a36.37,36.37,0,0,0-36.32,36.33v7.9A36.36,36.36,0,0,0,587,583.07H776.81a36.36,36.36,0,0,0,36.32-36.32v-7.9a36.37,36.37,0,0,0-36.32-36.33Z"/><path class="cls-2" d="M676.6,926.07h-7.9A38.72,38.72,0,0,1,630,887.38V697.53a38.72,38.72,0,0,1,38.68-38.68h7.9a38.72,38.72,0,0,1,38.69,38.68V887.38A38.73,38.73,0,0,1,676.6,926.07Zm-7.9-264.86a36.36,36.36,0,0,0-36.32,36.32V887.38a36.37,36.37,0,0,0,36.32,36.33h7.9a36.37,36.37,0,0,0,36.33-36.33V697.53a36.37,36.37,0,0,0-36.33-36.32Z"/><path class="cls-2" d="M381.76,559H365.42a78.86,78.86,0,0,1-78.77-78.77V87.46A78.86,78.86,0,0,1,365.42,8.7h16.34a78.86,78.86,0,0,1,78.77,78.76V480.18A78.86,78.86,0,0,1,381.76,559ZM365.42,11.06A76.49,76.49,0,0,0,289,87.46V480.18a76.5,76.5,0,0,0,76.41,76.41h16.34a76.5,76.5,0,0,0,76.41-76.41V87.46a76.49,76.49,0,0,0-76.41-76.4Z"/><circle class="cls-1" cx="282.07" cy="450.57" r="29.44" transform="translate(-235.98 331.43) rotate(-45)"/><path class="cls-2" d="M236.19,714.59H46.35A38.73,38.73,0,0,1,7.66,675.9V668a38.73,38.73,0,0,1,38.69-38.69H236.19A38.73,38.73,0,0,1,274.88,668v7.89A38.73,38.73,0,0,1,236.19,714.59ZM46.35,631.68A36.36,36.36,0,0,0,10,668v7.89a36.37,36.37,0,0,0,36.33,36.33H236.19a36.37,36.37,0,0,0,36.33-36.33V668a36.37,36.37,0,0,0-36.33-36.33Z"/></svg>