<svg id="Layer_1" data-name="Layer 1" xmlns="http://www.w3.org/2000/svg" viewBox="0 0 822.74 934.3"><defs><style>.cls-1{fill:#18104a;}.cls-2{fill:#56bc77;}.cls-3{fill:#fff;}.cls-4{fill:#f2b341;}.cls-5{fill:#e6549e;}.cls-6{fill:#ef4244;}</style></defs><title>chegaai-marca-vetores</title><rect class="cls-1" x="-17.67" y="-23.37" width="856.18" height="969.86"/><circle class="cls-2" cx="142.26" cy="284.5" r="101.82"/><circle class="cls-2" cx="468.23" cy="711.34" r="101.82"/><circle class="cls-3" cx="375.66" cy="722.87" r="29.44" transform="translate(-410.89 510.74) rotate(-47.45)"/><path class="cls-3" d="M298.26,289.18a5.77,5.77,0,1,1,5.76-5.77A5.78,5.78,0,0,1,298.26,289.18Zm0-10.93a5.16,5.16,0,1,0,5.15,5.16A5.16,5.16,0,0,0,298.26,278.25Z"/><path class="cls-3" d="M259.47,669.81a5.77,5.77,0,1,1,5.76-5.77A5.78,5.78,0,0,1,259.47,669.81Zm0-10.92a5.16,5.16,0,1,0,5.16,5.15A5.16,5.16,0,0,0,259.47,658.89Z"/><path class="cls-3" d="M457.29,331.67a5.77,5.77,0,1,1,5.77-5.77A5.78,5.78,0,0,1,457.29,331.67Zm0-10.93a5.16,5.16,0,1,0,5.16,5.16A5.17,5.17,0,0,0,457.29,320.74Z"/><path class="cls-3" d="M364.06,441.39a5.77,5.77,0,1,1,5.77-5.76A5.76,5.76,0,0,1,364.06,441.39Zm0-10.92a5.16,5.16,0,1,0,5.16,5.16A5.17,5.17,0,0,0,364.06,430.47Z"/><path class="cls-2" d="M544.61,290.18a39.59,39.59,0,1,0,39.59,39.59A39.59,39.59,0,0,0,544.61,290.18Z"/><path class="cls-3" d="M385.65,489.56l28.57-41.07a7.82,7.82,0,0,1,12.84,0l28.56,41.07a7.81,7.81,0,0,1-6.42,12.28H392.07A7.81,7.81,0,0,1,385.65,489.56Z"/><path class="cls-4" d="M130.21,743.5l47.31-68a12.94,12.94,0,0,1,21.26,0l47.31,68a13,13,0,0,1-10.63,20.35H140.84A13,13,0,0,1,130.21,743.5Z"/><path class="cls-4" d="M224,449.55,210.25,440a2.63,2.63,0,0,1,0-4.31L224,426.06a2.62,2.62,0,0,1,4.12,2.15V447.4A2.62,2.62,0,0,1,224,449.55Z"/><path class="cls-4" d="M395.35,362.55,354.29,334a7.82,7.82,0,0,1,0-12.84l41.06-28.57A7.83,7.83,0,0,1,407.64,299v57.14A7.83,7.83,0,0,1,395.35,362.55Z"/><path class="cls-3" d="M214.59,332.11l13.49-19.39a3.68,3.68,0,0,1,6.06,0l13.49,19.39a3.69,3.69,0,0,1-3,5.8h-27A3.69,3.69,0,0,1,214.59,332.11Z"/><rect class="cls-5" x="140.08" y="520.7" width="94.56" height="119.93" rx="21.37" ry="21.37"/><rect class="cls-5" x="619.66" y="382.31" width="117" height="92.26" rx="20.85" ry="20.85"/><rect class="cls-5" x="437.72" y="35.08" width="84.79" height="107.53" rx="19.16" ry="19.16"/><rect class="cls-6" x="90.02" y="503.78" width="85.67" height="33.75" rx="15.27" ry="15.27"/><rect class="cls-6" x="90.02" y="549.11" width="85.67" height="33.75" rx="15.27" ry="15.27"/><rect class="cls-6" x="556.95" y="760.16" width="33.75" height="85.67" rx="15.27" ry="15.27"/><rect class="cls-6" x="511.63" y="760.16" width="33.75" height="85.67" rx="15.27" ry="15.27"/><rect class="cls-6" x="489.82" y="120.31" width="91.28" height="35.96" rx="16.27" ry="16.27"/><rect class="cls-6" x="489.82" y="168.61" width="91.28" height="35.96" rx="16.27" ry="16.27"/><path class="cls-3" d="M282.11,873H92.26a38.73,38.73,0,0,1-38.68-38.69v-7.9a38.73,38.73,0,0,1,38.68-38.69H282.11a38.74,38.74,0,0,1,38.69,38.69v7.9A38.74,38.74,0,0,1,282.11,873ZM92.26,790.12a36.37,36.37,0,0,0-36.32,36.33v7.9a36.36,36.36,0,0,0,36.32,36.32H282.11a36.37,36.37,0,0,0,36.33-36.32v-7.9a36.37,36.37,0,0,0-36.33-36.33Z"/><path class="cls-3" d="M776.6,585.2H586.75a38.73,38.73,0,0,1-38.68-38.69v-7.9a38.73,38.73,0,0,1,38.68-38.69H776.6a38.74,38.74,0,0,1,38.69,38.69v7.9A38.74,38.74,0,0,1,776.6,585.2ZM586.75,502.29a36.36,36.36,0,0,0-36.32,36.32v7.9a36.37,36.37,0,0,0,36.32,36.33H776.6a36.37,36.37,0,0,0,36.33-36.33v-7.9a36.37,36.37,0,0,0-36.33-36.32Z"/><path class="cls-3" d="M676.39,925.84h-7.9a38.73,38.73,0,0,1-38.68-38.69V697.3a38.73,38.73,0,0,1,38.68-38.69h7.9a38.73,38.73,0,0,1,38.69,38.69V887.15A38.73,38.73,0,0,1,676.39,925.84ZM668.49,661a36.37,36.37,0,0,0-36.32,36.33V887.15a36.36,36.36,0,0,0,36.32,36.32h7.9a36.37,36.37,0,0,0,36.33-36.32V697.3A36.37,36.37,0,0,0,676.39,661Z"/><path class="cls-3" d="M381.55,558.71H365.21A78.85,78.85,0,0,1,286.45,480V87.23A78.86,78.86,0,0,1,365.21,8.46h16.34a78.86,78.86,0,0,1,78.77,78.77V480A78.85,78.85,0,0,1,381.55,558.71ZM365.21,10.82a76.49,76.49,0,0,0-76.4,76.41V480a76.48,76.48,0,0,0,76.4,76.4h16.34A76.49,76.49,0,0,0,458,480V87.23a76.5,76.5,0,0,0-76.41-76.41Z"/><circle class="cls-2" cx="281.87" cy="450.33" r="29.44" transform="translate(-235.88 331.21) rotate(-45)"/><path class="cls-3" d="M236,714.36H46.14A38.73,38.73,0,0,1,7.45,675.67v-7.9a38.73,38.73,0,0,1,38.69-38.69H236a38.73,38.73,0,0,1,38.69,38.69v7.9A38.73,38.73,0,0,1,236,714.36ZM46.14,631.44A36.37,36.37,0,0,0,9.81,667.77v7.9A36.37,36.37,0,0,0,46.14,712H236a36.37,36.37,0,0,0,36.33-36.32v-7.9A36.37,36.37,0,0,0,236,631.44Z"/></svg>